<svg width="12" height="7" viewBox="0 0 12 7" fill="none" xmlns="http://www.w3.org/2000/svg">
<path d="M11.9978 1.07142C11.9978 0.982134 11.9531 0.881687 11.8862 0.814723L11.3281 0.256687C11.2612 0.189723 11.1607 0.145081 11.0714 0.145081C10.9821 0.145081 10.8817 0.189723 10.8147 0.256687L6.42857 4.64285L2.04241 0.256687C1.97545 0.189723 1.875 0.145081 1.78571 0.145081C1.68527 0.145081 1.59598 0.189723 1.52902 0.256687L0.970982 0.814723C0.904018 0.881687 0.859375 0.982134 0.859375 1.07142C0.859375 1.16071 0.904018 1.26115 0.970982 1.32812L6.17188 6.52901C6.23884 6.59597 6.33929 6.64062 6.42857 6.64062C6.51786 6.64062 6.6183 6.59597 6.68527 6.52901L11.8862 1.32812C11.9531 1.26115 11.9978 1.16071 11.9978 1.07142Z" fill="#FFF589"/>
</svg>
