<svg width="12" height="7" viewBox="0 0 12 7" fill="none" xmlns="http://www.w3.org/2000/svg">
<path d="M11.9978 5.71427C11.9978 5.80356 11.9531 5.904 11.8862 5.97097L11.3281 6.529C11.2612 6.59597 11.1607 6.64061 11.0714 6.64061C10.9821 6.64061 10.8817 6.59597 10.8147 6.529L6.42857 2.14284L2.04241 6.529C1.97545 6.59597 1.875 6.64061 1.78571 6.64061C1.68527 6.64061 1.59598 6.59597 1.52902 6.529L0.970982 5.97097C0.904018 5.904 0.859375 5.80356 0.859375 5.71427C0.859375 5.62498 0.904018 5.52454 0.970982 5.45757L6.17188 0.256681C6.23884 0.189717 6.33929 0.145074 6.42857 0.145074C6.51786 0.145074 6.6183 0.189717 6.68527 0.256681L11.8862 5.45757C11.9531 5.52454 11.9978 5.62498 11.9978 5.71427Z" fill="#FFF589"/>
</svg>
