<svg width="30" height="30" viewBox="0 0 30 30" fill="none" xmlns="http://www.w3.org/2000/svg">
<g clip-path="url(#clip0_477_7699)">
<g style="mix-blend-mode:luminosity">
<g style="mix-blend-mode:luminosity">
<path d="M14.9996 30C12.0329 29.9999 9.13289 29.1201 6.6662 27.4719C4.19951 25.8236 2.27697 23.4809 1.14171 20.74C0.00645146 17.9991 -0.290548 14.9831 0.288271 12.0734C0.86709 9.16374 2.29574 6.49103 4.39354 4.39328C6.49134 2.29553 9.16408 0.866951 12.0738 0.288201C14.9835 -0.290548 17.9995 0.00652284 20.7403 1.14185C23.4812 2.27717 25.8239 4.19976 27.4721 6.66649C29.1203 9.13322 30 12.0333 30 15C29.9956 18.977 28.4138 22.7898 25.6017 25.6019C22.7895 28.414 18.9766 29.9957 14.9996 30Z" fill="white"/>
</g>
<path style="mix-blend-mode:luminosity" d="M14.9999 29.0634C11.2734 29.0526 7.70257 27.5674 5.06752 24.9324C2.43246 22.2973 0.947321 18.7265 0.936523 15C0.947415 11.2735 2.43258 7.70277 5.06762 5.06774C7.70265 2.43271 11.2734 0.947537 14.9999 0.936646C18.7264 0.947537 22.2971 2.43271 24.9321 5.06774C27.5672 7.70277 29.0523 11.2735 29.0632 15C29.0523 18.7265 27.5672 22.2972 24.9321 24.9323C22.2971 27.5673 18.7264 29.0525 14.9999 29.0634Z" fill="url(#paint0_radial_477_7699)"/>
<path style="mix-blend-mode:color-dodge" d="M18.1074 1.47723C16.5299 1.11313 14.9059 0.993147 13.292 1.12146C7.36591 1.76156 2.10001 6.72554 1.54068 12.7123C1.40246 14.1929 1.573 15.7998 2.52329 16.9447C3.29264 17.8709 4.45905 18.3602 5.59925 18.7479C7.81576 19.5019 10.8185 18.1312 12.9316 17.4167C15.2576 16.6302 17.0157 15.3036 19.0681 13.9728C19.9928 13.3124 21.0027 12.7801 22.0701 12.3903C22.6054 12.1982 23.1739 12.1155 23.7418 12.1471C24.3097 12.1787 24.8655 12.3241 25.3762 12.5745C28.0432 14.0572 27.6631 18.0077 26.4758 20.3154C27.9887 18.5842 28.3046 16.1218 28.3093 13.8227C28.3161 10.0963 26.53 5.99856 23.5047 3.71133C22.1559 2.69283 20.1465 1.91809 18.1074 1.47723Z" fill="url(#paint1_linear_477_7699)"/>
<path style="mix-blend-mode:color-burn" d="M3.60337 21.0152C3.53484 20.6714 3.49616 20.3224 3.48776 19.9719C3.45772 19.7008 3.52104 19.4275 3.66726 19.1972C4.11243 18.6228 5.02108 19.1038 5.5341 19.6187C8.84414 22.9484 12.4385 24.443 16.8105 21.8384C18.6529 20.7409 20.4451 18.7757 21.7414 17.0826C22.3363 16.3061 22.9807 15.5145 23.8696 15.1081C24.7585 14.7017 25.9623 14.8083 26.5288 15.606C30.0384 20.5488 23.7519 25.7404 19.554 27.3197C16.2896 28.5323 12.6932 28.5014 9.45014 27.2328C6.69189 26.1414 4.16737 23.8549 3.60337 21.0152Z" fill="url(#paint2_radial_477_7699)"/>
<path style="mix-blend-mode:color-dodge" d="M13.6791 28.1734C9.72607 27.6575 5.87034 25.3976 3.62691 22.2498C3.33647 21.8416 2.08641 19.4115 3.76333 20.0412C5.14407 20.5596 5.9644 21.9798 7.27154 22.6788C11.152 24.7546 15.8823 25.3735 19.556 22.4853C19.8316 22.2413 20.1346 22.0301 20.4589 21.856C21.4282 21.4069 22.8643 22.0215 23.1073 23.101C23.3371 24.1217 22.189 25.7171 21.4724 26.3565C20.6918 27.013 19.7808 27.4963 18.7996 27.7746C17.1419 28.2775 15.3946 28.4136 13.6791 28.1734Z" fill="url(#paint3_linear_477_7699)"/>
<path style="mix-blend-mode:color-dodge" d="M13.4935 0.494013C12.8124 0.571761 12.1385 0.703817 11.4784 0.88892C9.70636 1.38291 7.61551 2.08585 6.17123 3.24867C5.32681 3.98899 4.57747 4.83118 3.94037 5.75597C3.31809 6.58455 2.6951 7.41338 2.07139 8.24245C1.56339 8.91845 1.03995 9.62893 0.895993 10.4618C0.631764 11.9955 1.85347 13.5378 3.36309 13.9155C5.65534 14.4899 7.60259 12.8413 9.37501 11.6896C11.5181 10.277 13.8228 9.12653 16.2399 8.26291C18.7706 7.38729 21.5284 7.00172 24.142 7.58439C25.0917 7.77936 25.9978 8.14632 26.8155 8.66715C28.085 9.51581 28.999 10.8008 29.3842 12.2784C28.4311 8.55981 26.5211 4.42154 22.8916 2.67067C19.7722 1.16787 16.8262 0.115979 13.4935 0.494013Z" fill="url(#paint4_radial_477_7699)"/>
<path style="mix-blend-mode:color-dodge" d="M27.1626 8.74217C27.1841 8.46035 27.2028 6.94499 26.4973 7.31369C26.1419 7.49929 26.4381 8.4722 26.5045 8.76335C26.5519 8.9705 26.684 9.2218 26.8933 9.18913C27.0785 9.16041 27.1482 8.92993 27.1626 8.74217Z" fill="url(#paint5_radial_477_7699)"/>
<path style="mix-blend-mode:color-dodge" d="M13.0644 2.23809C12.6515 2.24421 12.2392 2.27333 11.8295 2.32532C10.2929 2.52242 9.08126 3.13417 7.76658 3.887C6.12106 4.82355 4.71262 6.1255 3.64986 7.69247C1.66563 10.641 0.925003 14.5682 2.19732 17.936C2.31866 18.2562 2.53264 18.6231 2.87441 18.6181C2.79863 17.9476 2.77223 17.2724 2.79543 16.598C2.78291 16.1479 2.93782 15.7091 3.23019 15.3666C4.10724 14.5233 5.61614 16.3858 6.44365 16.6906C7.94429 17.2424 9.25933 16.794 10.1554 15.4883C10.5693 14.8841 10.8709 14.2109 11.2461 13.5823C12.0677 12.2196 13.2209 11.087 14.5981 10.2899C15.1917 9.92586 15.8152 9.61288 16.4617 9.35431C17.1603 9.10049 17.9232 9.18917 18.6315 8.9253C21.1629 7.98326 20.1735 4.80067 18.4057 3.4921C17.7654 3.0606 17.0452 2.76166 16.2876 2.61289C15.2332 2.35304 14.1503 2.22712 13.0644 2.23809Z" fill="url(#paint6_radial_477_7699)"/>
<path style="mix-blend-mode:color-dodge" d="M4.2817 6.24423C6.17044 3.98249 8.73159 2.31886 11.5308 2.03955C9.26041 6.39609 7.91198 11.266 9.48802 16.1015C11.1567 21.2238 15.2878 24.4351 20.2255 26.1041C19.4716 25.8492 17.351 26.6735 16.5023 26.7715C15.0241 26.9587 13.5314 27.0046 12.0445 26.9086C9.77092 26.736 7.2252 25.8431 5.53356 24.2922C3.27537 22.2071 1.82201 19.3945 1.42761 16.3463C0.993573 12.9027 2.0451 8.92206 4.2817 6.24423Z" fill="url(#paint7_radial_477_7699)"/>
<g style="mix-blend-mode:luminosity">
<path d="M6.72571 5.8245C6.57569 5.79123 6.41878 5.81049 6.28126 5.87907C5.17301 6.35296 5.07608 7.4946 4.86965 8.51166C4.6342 9.67274 4.5562 10.8602 4.63773 12.0421C4.68873 11.0314 4.84088 10.0284 5.09188 9.04802C5.37908 7.74985 5.92513 7.61953 6.71171 6.73709C6.93071 6.49117 7.0901 6.06467 6.823 5.87261C6.79326 5.85162 6.76044 5.8354 6.72571 5.8245Z" fill="white"/>
</g>
<g style="mix-blend-mode:luminosity">
<path d="M7.36115 5.20167C7.2577 5.25821 7.17923 5.35152 7.14127 5.46314C7.10331 5.57476 7.10863 5.69656 7.15616 5.80445C7.24879 5.85867 7.35128 5.8939 7.45767 5.90807C7.56406 5.92225 7.67221 5.91509 7.7758 5.88702C7.81531 5.85336 7.84775 5.8122 7.87124 5.76592C7.89473 5.71965 7.90881 5.66917 7.91265 5.61741C7.9165 5.56566 7.91004 5.51365 7.89366 5.46441C7.87727 5.41516 7.85128 5.36966 7.81718 5.33053C7.78309 5.29141 7.74157 5.25943 7.69503 5.23646C7.6485 5.21349 7.59786 5.19997 7.54607 5.1967C7.49427 5.19343 7.44234 5.20047 7.39328 5.21741C7.34423 5.23434 7.29901 5.26084 7.26027 5.29537L7.36115 5.20167Z" fill="white"/>
</g>
</g>
</g>
<defs>
<radialGradient id="paint0_radial_477_7699" cx="0" cy="0" r="1" gradientUnits="userSpaceOnUse" gradientTransform="translate(14.9999 15) scale(14.0634)">
<stop stop-color="#DF7624"/>
<stop offset="1" stop-color="#C36317"/>
</radialGradient>
<linearGradient id="paint1_linear_477_7699" x1="20.9363" y1="28.2053" x2="16.6338" y2="7.32482" gradientUnits="userSpaceOnUse">
<stop stop-color="white"/>
<stop offset="0.076" stop-color="#E5E4E4"/>
<stop offset="0.262" stop-color="#AAA9A9"/>
<stop offset="0.441" stop-color="#7A7778"/>
<stop offset="0.609" stop-color="#545152"/>
<stop offset="0.763" stop-color="#393536"/>
<stop offset="0.898" stop-color="#282425"/>
<stop offset="1" stop-color="#231F20"/>
</linearGradient>
<radialGradient id="paint2_radial_477_7699" cx="0" cy="0" r="1" gradientUnits="userSpaceOnUse" gradientTransform="translate(-43.0847 63.2875) scale(46.3062 46.9315)">
<stop stop-color="#231F20"/>
<stop offset="0.102" stop-color="#282425"/>
<stop offset="0.237" stop-color="#393536"/>
<stop offset="0.391" stop-color="#545152"/>
<stop offset="0.559" stop-color="#7A7778"/>
<stop offset="0.738" stop-color="#AAA9A9"/>
<stop offset="0.924" stop-color="#E5E4E4"/>
<stop offset="1" stop-color="white"/>
</radialGradient>
<linearGradient id="paint3_linear_477_7699" x1="13.0217" y1="32.7816" x2="13.0217" y2="22.443" gradientUnits="userSpaceOnUse">
<stop stop-color="white"/>
<stop offset="0.076" stop-color="#E5E4E4"/>
<stop offset="0.262" stop-color="#AAA9A9"/>
<stop offset="0.441" stop-color="#7A7778"/>
<stop offset="0.609" stop-color="#545152"/>
<stop offset="0.763" stop-color="#393536"/>
<stop offset="0.898" stop-color="#282425"/>
<stop offset="1" stop-color="#231F20"/>
</linearGradient>
<radialGradient id="paint4_radial_477_7699" cx="0" cy="0" r="1" gradientUnits="userSpaceOnUse" gradientTransform="translate(-51.8601 20.6649) scale(23.1712 23.1895)">
<stop stop-color="white"/>
<stop offset="0.076" stop-color="#E5E4E4"/>
<stop offset="0.262" stop-color="#AAA9A9"/>
<stop offset="0.441" stop-color="#7A7778"/>
<stop offset="0.609" stop-color="#545152"/>
<stop offset="0.763" stop-color="#393536"/>
<stop offset="0.898" stop-color="#282425"/>
<stop offset="1" stop-color="#231F20"/>
</radialGradient>
<radialGradient id="paint5_radial_477_7699" cx="0" cy="0" r="1" gradientUnits="userSpaceOnUse" gradientTransform="translate(221.22 6.97166) scale(3.87861 3.87933)">
<stop stop-color="white"/>
<stop offset="0.076" stop-color="#E5E4E4"/>
<stop offset="0.262" stop-color="#AAA9A9"/>
<stop offset="0.441" stop-color="#7A7778"/>
<stop offset="0.609" stop-color="#545152"/>
<stop offset="0.763" stop-color="#393536"/>
<stop offset="0.898" stop-color="#282425"/>
<stop offset="1" stop-color="#231F20"/>
</radialGradient>
<radialGradient id="paint6_radial_477_7699" cx="0" cy="0" r="1" gradientUnits="userSpaceOnUse" gradientTransform="translate(0.15593 -4.90457) scale(14.1049 14.1038)">
<stop stop-color="white"/>
<stop offset="0.076" stop-color="#E5E4E4"/>
<stop offset="0.262" stop-color="#AAA9A9"/>
<stop offset="0.441" stop-color="#7A7778"/>
<stop offset="0.609" stop-color="#545152"/>
<stop offset="0.763" stop-color="#393536"/>
<stop offset="0.898" stop-color="#282425"/>
<stop offset="1" stop-color="#231F20"/>
</radialGradient>
<radialGradient id="paint7_radial_477_7699" cx="0" cy="0" r="1" gradientUnits="userSpaceOnUse" gradientTransform="translate(63.8944 16.2427) scale(9.56973 9.56844)">
<stop stop-color="white"/>
<stop offset="0.076" stop-color="#E5E4E4"/>
<stop offset="0.262" stop-color="#AAA9A9"/>
<stop offset="0.441" stop-color="#7A7778"/>
<stop offset="0.609" stop-color="#545152"/>
<stop offset="0.763" stop-color="#393536"/>
<stop offset="0.898" stop-color="#282425"/>
<stop offset="1" stop-color="#231F20"/>
</radialGradient>
<clipPath id="clip0_477_7699">
<rect width="30" height="30" fill="white"/>
</clipPath>
</defs>
</svg>
