<svg width="19" height="26" viewBox="0 0 19 26" fill="none" xmlns="http://www.w3.org/2000/svg">
<path d="M18.8498 8.66L18.0598 7.87C18.5172 7.34722 18.8096 6.70081 18.9004 6.01217C18.9911 5.32352 18.8761 4.62341 18.5698 4C17.9098 2.8 16.4998 2.79 15.2598 2.78C13.4198 2.78 12.2598 2.65 11.9198 0.869998C11.9079 0.805005 11.8831 0.743082 11.8467 0.687951C11.8102 0.63282 11.7631 0.58562 11.708 0.549189C11.6528 0.512758 11.5909 0.487849 11.5259 0.475958C11.461 0.464068 11.3942 0.465442 11.3298 0.479998C11.2654 0.493118 11.2043 0.518788 11.1499 0.555542C11.0954 0.592296 11.0488 0.639413 11.0126 0.694203C10.9763 0.748993 10.9513 0.810381 10.9388 0.874861C10.9263 0.939341 10.9266 1.00565 10.9398 1.07C11.4798 3.73 13.6598 3.76 15.2498 3.78C16.5298 3.78 17.3398 3.84 17.6898 4.48C17.896 4.90605 17.9728 5.38323 17.9106 5.85247C17.8484 6.32171 17.6499 6.7624 17.3398 7.12L16.9998 6.78C16.9551 6.73196 16.9009 6.6938 16.8407 6.66796C16.7804 6.64213 16.7154 6.6292 16.6498 6.63H11.8898C11.8206 6.6307 11.7522 6.64521 11.6887 6.67269C11.6251 6.70016 11.5677 6.74004 11.5198 6.79L1.12979 18.08C1.04115 18.173 0.991699 18.2965 0.991699 18.425C0.991699 18.5535 1.04115 18.677 1.12979 18.77L7.73979 25.35C7.78444 25.398 7.83865 25.4362 7.89892 25.462C7.9592 25.4879 8.02422 25.5008 8.08979 25.5C8.1577 25.5003 8.22491 25.4862 8.28697 25.4586C8.34902 25.4311 8.40452 25.3906 8.44979 25.34L18.8698 14.05C18.9535 13.9565 18.9998 13.8355 18.9998 13.71V9C18.9992 8.9361 18.9856 8.873 18.9598 8.81454C18.934 8.75608 18.8966 8.7035 18.8498 8.66ZM17.9998 13.52L8.09979 24.28L2.18979 18.4L12.1098 7.63H16.4098L17.9998 9.22V13.52Z" fill="#9B3734"/>
<path d="M13.9296 10.31C13.8053 10.4349 13.7069 10.5831 13.6399 10.7462C13.573 10.9092 13.5389 11.0838 13.5396 11.26C13.5391 11.4347 13.5734 11.6077 13.6403 11.7691C13.7073 11.9305 13.8056 12.0769 13.9296 12.2C14.1825 12.4501 14.5239 12.5902 14.8796 12.59C15.2322 12.5898 15.5703 12.4495 15.8196 12.2C15.9467 12.0788 16.0478 11.9329 16.1166 11.7713C16.1854 11.6096 16.2204 11.4357 16.2196 11.26C16.22 11.0829 16.1848 10.9076 16.1161 10.7443C16.0474 10.5811 15.9465 10.4334 15.8196 10.31C15.5685 10.0602 15.2287 9.92004 14.8746 9.92004C14.5204 9.92004 14.1807 10.0602 13.9296 10.31ZM15.1196 11.49C15.0887 11.5227 15.0515 11.5487 15.0102 11.5665C14.969 11.5843 14.9245 11.5935 14.8796 11.5935C14.8346 11.5935 14.7901 11.5843 14.7489 11.5665C14.7076 11.5487 14.6704 11.5227 14.6396 11.49C14.6067 11.4616 14.5807 11.4262 14.5634 11.3864C14.5461 11.3466 14.538 11.3034 14.5396 11.26C14.5391 11.2153 14.5477 11.171 14.5649 11.1297C14.5821 11.0885 14.6075 11.0512 14.6396 11.02C14.7038 10.9571 14.7897 10.9213 14.8796 10.92C14.9686 10.9249 15.0534 10.9602 15.1196 11.02C15.1825 11.0842 15.2183 11.1701 15.2196 11.26C15.2178 11.3468 15.1819 11.4295 15.1196 11.49Z" fill="#9B3734"/>
<path d="M11.7899 11.74C11.7434 11.6931 11.6881 11.6559 11.6272 11.6306C11.5662 11.6052 11.5009 11.5921 11.4349 11.5921C11.3689 11.5921 11.3035 11.6052 11.2426 11.6306C11.1817 11.6559 11.1264 11.6931 11.0799 11.74L5.07987 17.74C4.98762 17.8352 4.93604 17.9625 4.93604 18.095C4.93604 18.2275 4.98762 18.3549 5.07987 18.45C5.17219 18.5442 5.29799 18.5981 5.42987 18.6C5.56501 18.5997 5.69448 18.5457 5.78987 18.45L11.7899 12.45C11.8821 12.3549 11.9337 12.2275 11.9337 12.095C11.9337 11.9625 11.8821 11.8352 11.7899 11.74Z" fill="#9B3734"/>
<path d="M13.6498 14.3L9.37979 18.57C9.31127 18.6399 9.26477 18.7283 9.24605 18.8244C9.22733 18.9205 9.23721 19.0199 9.27448 19.1104C9.31174 19.2009 9.37475 19.2785 9.45569 19.3335C9.53662 19.3886 9.63193 19.4186 9.72979 19.42C9.86493 19.4197 9.99441 19.3657 10.0898 19.27L14.3598 15C14.452 14.9049 14.5036 14.7775 14.5036 14.645C14.5036 14.5125 14.452 14.3852 14.3598 14.29C14.3127 14.2438 14.2568 14.2074 14.1955 14.1828C14.1343 14.1583 14.0687 14.1462 14.0027 14.1471C13.9367 14.148 13.8715 14.162 13.811 14.1883C13.7504 14.2145 13.6956 14.2525 13.6498 14.3Z" fill="#9B3734"/>
</svg>
