<svg width="110" height="46" viewBox="0 0 110 46" fill="none" xmlns="http://www.w3.org/2000/svg">
<g clip-path="url(#clip0_701_641)">
<path d="M109.991 20.9538V21.025C110.049 26.8707 109.875 32.7164 109.47 38.5355C109.295 40.3171 108.656 41.9482 107.676 43.1221C106.695 44.296 105.439 44.9317 104.144 44.9097C71.7046 45.9813 39.0077 45.9813 6.05325 44.9097C4.7555 44.9117 3.50062 44.2648 2.51817 43.0873C1.53571 41.9099 0.891356 40.2807 0.702992 38.4977C0.0307251 31.3288 -0.16195 24.0888 0.127413 16.8706C0.236439 13.649 0.448063 10.4586 0.730245 7.23924C0.923163 5.45535 1.56851 3.82577 2.55002 2.64406C3.53153 1.46236 4.78468 0.806244 6.08371 0.793883C38.4963 -0.245096 71.1739 -0.245096 104.117 0.793883C105.418 0.772911 106.681 1.41298 107.667 2.59375C108.653 3.77452 109.294 5.41464 109.47 7.20585C109.77 11.7877 109.937 16.3697 109.991 20.9538Z" fill="url(#paint0_linear_701_641)"/>
<path d="M109.991 20.9539V21.0252C109.907 21.7502 109.739 22.4516 109.494 23.1024C109.262 23.8268 108.844 24.4048 108.321 24.7229C107.799 25.0409 107.209 25.076 106.669 24.8211C106.119 26.9603 105.714 29.1657 105.458 31.409C105.407 28.8309 105.38 26.2171 105.407 23.6011C105.407 21.7042 105.438 19.8162 105.489 17.9082C105.465 16.9769 105.483 16.0445 105.543 15.1163C105.611 14.8628 105.649 14.5961 105.656 14.326C105.543 13.1104 104.254 12.6829 103.515 12.4669C96.4605 10.4944 89.1607 11.3916 81.9426 11.6432C59.9307 12.467 37.8643 7.55998 15.9374 10.2094C13.3552 10.2375 10.8284 11.2528 8.63434 13.1438C8.57463 13.2472 8.50045 13.3328 8.41629 13.3953C7.55431 14.4421 6.85401 15.7205 6.35764 17.1535C6.20779 17.4842 6.09937 17.8478 6.03698 18.2288C5.99389 18.5231 5.92887 18.8104 5.84298 19.086C5.02996 21.4077 4.50112 23.9012 4.27815 26.4642C4.22364 27.3214 4.19636 28.1785 4.19636 29.0068C4.19636 29.4364 4.19636 29.8639 4.22362 30.2936C4.25087 30.5407 4.22364 30.937 4.25089 31.2264C3.37228 27.7867 3.59353 23.9907 2.96824 20.4463C2.86199 19.7243 2.64728 19.0415 2.33813 18.4426C2.1708 18.1783 1.97696 17.9489 1.76255 17.7613C1.65022 17.6645 1.52882 17.5896 1.4018 17.5387C1.22129 17.4893 1.03661 17.4766 0.853472 17.5008C0.7068 17.4785 0.565954 17.4087 0.442296 17.2969C0.318638 17.1852 0.215632 17.0346 0.141602 16.8574C0.250627 13.6358 0.462251 10.4454 0.744434 7.22603C0.937351 5.44214 1.5827 3.81256 2.56421 2.63085C3.54572 1.44915 4.79887 0.793 6.0979 0.780638C38.5104 -0.258341 71.1881 -0.258341 104.131 0.780638C105.433 0.759666 106.695 1.39973 107.681 2.5805C108.667 3.76128 109.308 5.40143 109.484 7.19264C109.766 11.7879 109.936 16.3698 109.991 20.9539Z" fill="#FFDF80"/>
<path d="M105.35 38.0379C105.297 38.469 105.136 38.8601 104.895 39.1418C104.654 39.4234 104.349 39.5773 104.034 39.5764C89.516 40.0439 74.78 40.2911 60.1771 40.3289H55.2901C48.7871 40.3289 42.252 40.291 35.7217 40.2198C33.9581 40.1864 32.2089 40.1485 30.4805 40.1485C22.3565 40.0061 14.2341 39.7901 6.16466 39.543C5.82756 39.5404 5.50256 39.3682 5.24991 39.0583C4.99725 38.7484 4.83408 38.3218 4.79063 37.8576C3.93696 28.5764 3.89119 19.1862 4.65434 9.88975C4.71206 9.22183 4.76658 8.53165 4.81468 7.85038C4.86495 7.39145 5.02978 6.97165 5.28037 6.66438C5.53095 6.35712 5.85133 6.18196 6.18551 6.16948C22.379 5.6307 38.8193 5.37909 55.0657 5.37909H55.4505C65.4119 5.37909 75.4582 5.4882 85.5013 5.66408C91.7029 5.81102 97.8789 5.94907 104.029 6.16948C104.338 6.15931 104.639 6.30094 104.88 6.5694C105.121 6.83786 105.286 7.21586 105.346 7.63666V7.67005C106.062 17.7682 106.063 27.9394 105.35 38.0379Z" fill="url(#paint1_linear_701_641)"/>
<path d="M105.352 7.63442V7.66781C105.375 13.0609 105.192 18.4519 104.804 23.818C104.752 24.2451 104.589 24.6308 104.345 24.9014C104.102 25.1721 103.795 25.3087 103.484 25.2852C87.5391 25.7906 71.32 26.0756 55.2901 26.0756C39.18 26.0756 22.8503 25.7906 6.68569 25.2852C6.35595 25.2861 6.03738 25.1195 5.78992 24.8169C5.54246 24.5143 5.38319 24.0964 5.34212 23.6421C4.90367 19.0828 4.67394 14.4895 4.6543 9.88975C4.71202 9.22183 4.76654 8.53165 4.81464 7.85038C4.86491 7.39145 5.02974 6.97165 5.28032 6.66438C5.5309 6.35712 5.85129 6.18196 6.18546 6.16948C22.3789 5.6307 38.8193 5.37909 55.0656 5.37909C71.2831 5.37909 87.7539 5.6307 104.028 6.16948C104.337 6.15654 104.641 6.29664 104.883 6.56488C105.126 6.83312 105.292 7.2121 105.352 7.63442Z" fill="url(#paint2_linear_701_641)"/>
</g>
<defs>
<linearGradient id="paint0_linear_701_641" x1="54.9995" y1="-29.6896" x2="54.9995" y2="32.0038" gradientUnits="userSpaceOnUse">
<stop stop-color="#FFCA2B"/>
<stop offset="1" stop-color="#D15B24"/>
</linearGradient>
<linearGradient id="paint1_linear_701_641" x1="54.999" y1="77.5155" x2="54.999" y2="17.8212" gradientUnits="userSpaceOnUse">
<stop stop-color="#FFCE3B"/>
<stop offset="1" stop-color="#CC6923"/>
</linearGradient>
<linearGradient id="paint2_linear_701_641" x1="55.0041" y1="30.3184" x2="55.0041" y2="-3.4997" gradientUnits="userSpaceOnUse">
<stop stop-color="#FFCE3B"/>
<stop offset="1" stop-color="#CC6923"/>
</linearGradient>
<clipPath id="clip0_701_641">
<rect width="110" height="45.7144" fill="white"/>
</clipPath>
</defs>
</svg>
