<svg width="52" height="36" viewBox="0 0 52 36" fill="none" xmlns="http://www.w3.org/2000/svg">
<path style="mix-blend-mode:screen" d="M51.814 0.662066C49.8067 0.933706 47.8326 1.5599 45.9395 2.52553C43.0139 4.3909 40.3552 6.97493 38.0913 10.1531C32.6016 16.9213 27.1118 23.6918 21.4874 30.2796C20.5815 31.3528 19.3742 33.3565 20.6857 34.6478C21.6477 35.5384 23.4595 35.1153 24.5818 35.1866C25.2119 35.22 25.8436 35.2913 26.4769 35.3291H21.59C15.087 35.3291 7.33498 35.2912 0.804688 35.22C1.24245 35.1083 1.67181 34.9406 2.08732 34.7191C3.00664 34.1429 3.88035 33.4356 4.69431 32.6085C9.71749 27.7728 11.5549 27.0803 16.857 20.2988C19.8328 16.4894 22.3083 12.6601 24.7982 9.47632C25.6496 8.36313 26.5619 6.96716 26.3871 5.38865C26.1963 3.71218 24.9089 2.63464 23.6984 2.02461C21.6968 1.0758 19.6092 0.521223 17.4968 0.377075C27.4726 0.377075 41.7709 0.486181 51.814 0.662066Z" fill="url(#paint0_linear_701_610)"/>
<defs>
<linearGradient id="paint0_linear_701_610" x1="46.203" y1="-32.9322" x2="32.6193" y2="41.0006" gradientUnits="userSpaceOnUse">
<stop stop-color="#F2DE6D"/>
<stop offset="1"/>
</linearGradient>
</defs>
</svg>
